<svg width="12" height="12" viewBox="0 0 12 12" fill="none" xmlns="http://www.w3.org/2000/svg">
<path d="M5.53167 1.25247C5.69364 0.819299 6.30636 0.819299 6.46833 1.25247L7.61219 4.31153C7.68246 4.49946 7.85825 4.62718 8.05869 4.63594L11.3215 4.77851C11.7835 4.7987 11.9729 5.38142 11.6109 5.66932L9.05508 7.7025C8.89807 7.8274 8.83092 8.03406 8.88453 8.2274L9.7572 11.3746C9.88077 11.8202 9.38508 12.1804 8.99942 11.9251L6.27595 10.1226C6.10865 10.0119 5.89135 10.0119 5.72405 10.1226L3.00058 11.9251C2.61492 12.1804 2.11923 11.8202 2.2428 11.3746L3.11547 8.2274C3.16908 8.03406 3.10193 7.8274 2.94492 7.7025L0.389054 5.66932C0.027135 5.38142 0.216473 4.7987 0.678498 4.77851L3.94131 4.63594C4.14175 4.62718 4.31754 4.49946 4.38781 4.31153L5.53167 1.25247Z" fill="#FAD143"/>
</svg>
